# xmcd CD database file
#
# Track frame offsets:
#	150
#	17577
#	36237
#	53817
#	68310
#	87217
#	103777
#	119892
#	135340
#	150705
#
# Disc length: 2274 seconds
#
# Revision: 6
# Processed by: cddbd v1.5.2PL0 Copyright (c) Steve Scherf et al.
# Submitted via: CDex 1.51
#
DISCID=7b08e00a
DTITLE=Ty Herndon - Living In A Moment
DYEAR=1996
DGENRE=Country
TTITLE0=Living In A Moment
TTITLE1=Returning The Faith
TTITLE2=She Wants To Be Wanted Again
TTITLE3=Before There Was You
TTITLE4=Don't Tell Mama
TTITLE5=Loved Too Much
TTITLE6=Her Heart Is Only Human
TTITLE7=Love Don't Work That Way
TTITLE8=I Have To Surrender
TTITLE9=I Know How The River Feels
EXTD=YEAR: 1996
EXTT0=
EXTT1=
EXTT2=
EXTT3=
EXTT4=
EXTT5=
EXTT6=
EXTT7=
EXTT8=
EXTT9=
PLAYORDER=
